<mxfile host="app.diagrams.net" modified="2022-10-03T11:12:12.224Z" agent="5.0 (Windows)" etag="mgD80W964OxIkbio8-H_" version="20.3.7" type="github">
  <diagram id="R2lEEEUBdFMjLlhIrx00" name="Page-1">
    <mxGraphModel dx="872" dy="490" grid="1" gridSize="10" guides="1" tooltips="1" connect="1" arrows="1" fold="1" page="1" pageScale="1" pageWidth="850" pageHeight="1100" math="0" shadow="0" extFonts="Permanent Marker^https://fonts.googleapis.com/css?family=Permanent+Marker">
      <root>
        <mxCell id="0" />
        <mxCell id="1" parent="0" />
        <mxCell id="dapb8UppqsjJf3CafIkM-14" style="rounded=0;orthogonalLoop=1;jettySize=auto;html=1;exitX=0.5;exitY=1;exitDx=0;exitDy=0;entryX=0;entryY=0.5;entryDx=0;entryDy=0;endArrow=none;endFill=0;" parent="1" source="dapb8UppqsjJf3CafIkM-5" target="dapb8UppqsjJf3CafIkM-10" edge="1">
          <mxGeometry relative="1" as="geometry" />
        </mxCell>
        <mxCell id="dapb8UppqsjJf3CafIkM-30" style="edgeStyle=none;rounded=0;orthogonalLoop=1;jettySize=auto;html=1;exitX=0;exitY=0.5;exitDx=0;exitDy=0;entryX=1;entryY=0.5;entryDx=0;entryDy=0;startArrow=none;startFill=0;endArrow=oval;endFill=1;" parent="1" source="dapb8UppqsjJf3CafIkM-5" target="dapb8UppqsjJf3CafIkM-17" edge="1">
          <mxGeometry relative="1" as="geometry" />
        </mxCell>
        <mxCell id="dapb8UppqsjJf3CafIkM-32" style="edgeStyle=none;rounded=0;orthogonalLoop=1;jettySize=auto;html=1;exitX=0.5;exitY=0;exitDx=0;exitDy=0;entryX=0.5;entryY=1;entryDx=0;entryDy=0;startArrow=none;startFill=0;endArrow=oval;endFill=0;" parent="1" source="dapb8UppqsjJf3CafIkM-5" target="dapb8UppqsjJf3CafIkM-19" edge="1">
          <mxGeometry relative="1" as="geometry" />
        </mxCell>
        <mxCell id="dapb8UppqsjJf3CafIkM-33" style="edgeStyle=none;rounded=0;orthogonalLoop=1;jettySize=auto;html=1;exitX=0.5;exitY=0;exitDx=0;exitDy=0;entryX=0.5;entryY=1;entryDx=0;entryDy=0;startArrow=none;startFill=0;endArrow=oval;endFill=0;" parent="1" source="dapb8UppqsjJf3CafIkM-5" target="dapb8UppqsjJf3CafIkM-16" edge="1">
          <mxGeometry relative="1" as="geometry" />
        </mxCell>
        <mxCell id="dapb8UppqsjJf3CafIkM-34" style="edgeStyle=none;rounded=0;orthogonalLoop=1;jettySize=auto;html=1;exitX=0.5;exitY=0;exitDx=0;exitDy=0;entryX=0.5;entryY=1;entryDx=0;entryDy=0;startArrow=none;startFill=0;endArrow=oval;endFill=0;" parent="1" source="dapb8UppqsjJf3CafIkM-5" target="dapb8UppqsjJf3CafIkM-18" edge="1">
          <mxGeometry relative="1" as="geometry" />
        </mxCell>
        <mxCell id="dapb8UppqsjJf3CafIkM-35" style="edgeStyle=none;rounded=0;orthogonalLoop=1;jettySize=auto;html=1;exitX=0.5;exitY=0;exitDx=0;exitDy=0;entryX=0.5;entryY=1;entryDx=0;entryDy=0;startArrow=none;startFill=0;endArrow=oval;endFill=0;" parent="1" source="dapb8UppqsjJf3CafIkM-5" target="dapb8UppqsjJf3CafIkM-20" edge="1">
          <mxGeometry relative="1" as="geometry" />
        </mxCell>
        <mxCell id="dapb8UppqsjJf3CafIkM-36" style="edgeStyle=none;rounded=0;orthogonalLoop=1;jettySize=auto;html=1;exitX=0.5;exitY=0;exitDx=0;exitDy=0;entryX=0.5;entryY=1;entryDx=0;entryDy=0;startArrow=none;startFill=0;endArrow=oval;endFill=0;" parent="1" source="dapb8UppqsjJf3CafIkM-5" target="dapb8UppqsjJf3CafIkM-22" edge="1">
          <mxGeometry relative="1" as="geometry" />
        </mxCell>
        <mxCell id="dapb8UppqsjJf3CafIkM-5" value="EMPLEADOS" style="rounded=1;whiteSpace=wrap;html=1;" parent="1" vertex="1">
          <mxGeometry x="350" y="170" width="120" height="60" as="geometry" />
        </mxCell>
        <mxCell id="AZYDAux8BNC2WzEdbDc_-2" style="edgeStyle=orthogonalEdgeStyle;rounded=0;orthogonalLoop=1;jettySize=auto;html=1;exitX=0.5;exitY=1;exitDx=0;exitDy=0;entryX=0.5;entryY=0;entryDx=0;entryDy=0;" edge="1" parent="1" source="dapb8UppqsjJf3CafIkM-7" target="AZYDAux8BNC2WzEdbDc_-1">
          <mxGeometry relative="1" as="geometry" />
        </mxCell>
        <mxCell id="dapb8UppqsjJf3CafIkM-7" value="INGENIERO" style="rounded=0;whiteSpace=wrap;html=1;" parent="1" vertex="1">
          <mxGeometry x="350" y="370" width="120" height="60" as="geometry" />
        </mxCell>
        <mxCell id="dapb8UppqsjJf3CafIkM-8" value="AMINISTRATIVO" style="rounded=0;whiteSpace=wrap;html=1;" parent="1" vertex="1">
          <mxGeometry x="110" y="370" width="120" height="60" as="geometry" />
        </mxCell>
        <mxCell id="dapb8UppqsjJf3CafIkM-9" value="ARQUITECTO" style="rounded=0;whiteSpace=wrap;html=1;" parent="1" vertex="1">
          <mxGeometry x="610" y="370" width="120" height="60" as="geometry" />
        </mxCell>
        <mxCell id="dapb8UppqsjJf3CafIkM-11" style="rounded=0;orthogonalLoop=1;jettySize=auto;html=1;exitX=0.5;exitY=0;exitDx=0;exitDy=0;entryX=0.5;entryY=0;entryDx=0;entryDy=0;endArrow=none;endFill=0;" parent="1" source="dapb8UppqsjJf3CafIkM-10" target="dapb8UppqsjJf3CafIkM-9" edge="1">
          <mxGeometry relative="1" as="geometry" />
        </mxCell>
        <mxCell id="dapb8UppqsjJf3CafIkM-12" style="rounded=0;orthogonalLoop=1;jettySize=auto;html=1;exitX=0.5;exitY=1;exitDx=0;exitDy=0;entryX=0.5;entryY=0;entryDx=0;entryDy=0;endArrow=none;endFill=0;" parent="1" source="dapb8UppqsjJf3CafIkM-10" target="dapb8UppqsjJf3CafIkM-8" edge="1">
          <mxGeometry relative="1" as="geometry" />
        </mxCell>
        <mxCell id="dapb8UppqsjJf3CafIkM-13" style="rounded=0;orthogonalLoop=1;jettySize=auto;html=1;exitX=1;exitY=0.5;exitDx=0;exitDy=0;entryX=0.5;entryY=0;entryDx=0;entryDy=0;endArrow=none;endFill=0;" parent="1" source="dapb8UppqsjJf3CafIkM-10" target="dapb8UppqsjJf3CafIkM-7" edge="1">
          <mxGeometry relative="1" as="geometry" />
        </mxCell>
        <mxCell id="dapb8UppqsjJf3CafIkM-10" value="" style="triangle;whiteSpace=wrap;html=1;rotation=90;" parent="1" vertex="1">
          <mxGeometry x="380" y="270" width="60" height="80" as="geometry" />
        </mxCell>
        <mxCell id="dapb8UppqsjJf3CafIkM-16" value="Nombre" style="text;html=1;strokeColor=none;fillColor=none;align=center;verticalAlign=middle;whiteSpace=wrap;rounded=0;" parent="1" vertex="1">
          <mxGeometry x="300" y="100" width="60" height="30" as="geometry" />
        </mxCell>
        <mxCell id="dapb8UppqsjJf3CafIkM-17" value="DNI" style="text;html=1;strokeColor=none;fillColor=none;align=center;verticalAlign=middle;whiteSpace=wrap;rounded=0;" parent="1" vertex="1">
          <mxGeometry x="230" y="185" width="60" height="30" as="geometry" />
        </mxCell>
        <mxCell id="dapb8UppqsjJf3CafIkM-18" value="&lt;div&gt;DirecciÃ³n&lt;/div&gt;" style="text;html=1;strokeColor=none;fillColor=none;align=center;verticalAlign=middle;whiteSpace=wrap;rounded=0;" parent="1" vertex="1">
          <mxGeometry x="380" y="100" width="60" height="30" as="geometry" />
        </mxCell>
        <mxCell id="dapb8UppqsjJf3CafIkM-19" value="&lt;div&gt;F.Nac&lt;/div&gt;" style="text;html=1;strokeColor=none;fillColor=none;align=center;verticalAlign=middle;whiteSpace=wrap;rounded=0;" parent="1" vertex="1">
          <mxGeometry x="230" y="100" width="60" height="30" as="geometry" />
        </mxCell>
        <mxCell id="dapb8UppqsjJf3CafIkM-20" value="Salario" style="text;html=1;strokeColor=none;fillColor=none;align=center;verticalAlign=middle;whiteSpace=wrap;rounded=0;" parent="1" vertex="1">
          <mxGeometry x="460" y="100" width="60" height="30" as="geometry" />
        </mxCell>
        <mxCell id="dapb8UppqsjJf3CafIkM-22" value="&lt;div&gt;Puesto&lt;/div&gt;" style="text;html=1;strokeColor=none;fillColor=none;align=center;verticalAlign=middle;whiteSpace=wrap;rounded=0;" parent="1" vertex="1">
          <mxGeometry x="550" y="100" width="60" height="30" as="geometry" />
        </mxCell>
        <mxCell id="dapb8UppqsjJf3CafIkM-37" value="" style="curved=1;endArrow=none;html=1;rounded=0;endFill=0;strokeWidth=2;" parent="1" edge="1">
          <mxGeometry width="50" height="50" relative="1" as="geometry">
            <mxPoint x="260" y="310" as="sourcePoint" />
            <mxPoint x="540" y="300" as="targetPoint" />
            <Array as="points">
              <mxPoint x="360" y="370" />
              <mxPoint x="490" y="360" />
            </Array>
          </mxGeometry>
        </mxCell>
        <mxCell id="dapb8UppqsjJf3CafIkM-39" value="Nivel" style="text;html=1;strokeColor=none;fillColor=none;align=center;verticalAlign=middle;whiteSpace=wrap;rounded=0;" parent="1" vertex="1">
          <mxGeometry x="130" y="470" width="60" height="30" as="geometry" />
        </mxCell>
        <mxCell id="dapb8UppqsjJf3CafIkM-40" value="" style="ellipse;whiteSpace=wrap;html=1;aspect=fixed;" parent="1" vertex="1">
          <mxGeometry x="380" y="450" width="10" height="10" as="geometry" />
        </mxCell>
        <mxCell id="AZYDAux8BNC2WzEdbDc_-4" style="edgeStyle=orthogonalEdgeStyle;rounded=0;orthogonalLoop=1;jettySize=auto;html=1;exitX=0.5;exitY=1;exitDx=0;exitDy=0;entryX=0.5;entryY=0;entryDx=0;entryDy=0;" edge="1" parent="1" source="AZYDAux8BNC2WzEdbDc_-1" target="AZYDAux8BNC2WzEdbDc_-3">
          <mxGeometry relative="1" as="geometry" />
        </mxCell>
        <mxCell id="AZYDAux8BNC2WzEdbDc_-1" value="Participan" style="rhombus;whiteSpace=wrap;html=1;" vertex="1" parent="1">
          <mxGeometry x="370" y="490" width="80" height="80" as="geometry" />
        </mxCell>
        <mxCell id="AZYDAux8BNC2WzEdbDc_-3" value="PROYECTOS" style="rounded=0;whiteSpace=wrap;html=1;" vertex="1" parent="1">
          <mxGeometry x="350" y="630" width="120" height="60" as="geometry" />
        </mxCell>
        <mxCell id="AZYDAux8BNC2WzEdbDc_-5" value="&lt;div&gt;( 1, n )&lt;/div&gt;" style="text;html=1;align=center;verticalAlign=middle;resizable=0;points=[];autosize=1;strokeColor=none;fillColor=none;" vertex="1" parent="1">
          <mxGeometry x="430" y="585" width="60" height="30" as="geometry" />
        </mxCell>
        <mxCell id="AZYDAux8BNC2WzEdbDc_-6" value="&lt;div&gt;( 1, n )&lt;/div&gt;" style="text;html=1;align=center;verticalAlign=middle;resizable=0;points=[];autosize=1;strokeColor=none;fillColor=none;" vertex="1" parent="1">
          <mxGeometry x="430" y="440" width="60" height="30" as="geometry" />
        </mxCell>
      </root>
    </mxGraphModel>
  </diagram>
</mxfile>
